<mxfile host="65bd71144e">
    <diagram id="C8BXN_CXFWmCioArX03P" name="Suico_ERå›³">
        <mxGraphModel dx="1073" dy="421" grid="1" gridSize="10" guides="1" tooltips="1" connect="1" arrows="1" fold="1" page="1" pageScale="1" pageWidth="827" pageHeight="1169" math="0" shadow="0">
            <root>
                <mxCell id="0"/>
                <mxCell id="1" parent="0"/>
                <mxCell id="2" value="sleep_logs" style="shape=table;startSize=30;container=1;collapsible=1;childLayout=tableLayout;fixedRows=1;rowLines=0;fontStyle=1;align=center;resizeLast=1;" vertex="1" parent="1">
                    <mxGeometry x="320" y="40" width="180" height="190" as="geometry"/>
                </mxCell>
                <mxCell id="3" value="" style="shape=partialRectangle;collapsible=0;dropTarget=0;pointerEvents=0;fillColor=none;top=0;left=0;bottom=1;right=0;points=[[0,0.5],[1,0.5]];portConstraint=eastwest;" vertex="1" parent="2">
                    <mxGeometry y="30" width="180" height="30" as="geometry"/>
                </mxCell>
                <mxCell id="4" value="PK" style="shape=partialRectangle;connectable=0;fillColor=none;top=0;left=0;bottom=0;right=0;fontStyle=1;overflow=hidden;" vertex="1" parent="3">
                    <mxGeometry width="40" height="30" as="geometry">
                        <mxRectangle width="40" height="30" as="alternateBounds"/>
                    </mxGeometry>
                </mxCell>
                <mxCell id="5" value="id" style="shape=partialRectangle;connectable=0;fillColor=none;top=0;left=0;bottom=0;right=0;align=left;spacingLeft=6;fontStyle=5;overflow=hidden;" vertex="1" parent="3">
                    <mxGeometry x="40" width="140" height="30" as="geometry">
                        <mxRectangle width="140" height="30" as="alternateBounds"/>
                    </mxGeometry>
                </mxCell>
                <mxCell id="6" value="" style="shape=partialRectangle;collapsible=0;dropTarget=0;pointerEvents=0;fillColor=none;top=0;left=0;bottom=0;right=0;points=[[0,0.5],[1,0.5]];portConstraint=eastwest;" vertex="1" parent="2">
                    <mxGeometry y="60" width="180" height="30" as="geometry"/>
                </mxCell>
                <mxCell id="7" value="FK" style="shape=partialRectangle;connectable=0;fillColor=none;top=0;left=0;bottom=0;right=0;editable=1;overflow=hidden;" vertex="1" parent="6">
                    <mxGeometry width="40" height="30" as="geometry">
                        <mxRectangle width="40" height="30" as="alternateBounds"/>
                    </mxGeometry>
                </mxCell>
                <mxCell id="8" value="user_id" style="shape=partialRectangle;connectable=0;fillColor=none;top=0;left=0;bottom=0;right=0;align=left;spacingLeft=6;overflow=hidden;" vertex="1" parent="6">
                    <mxGeometry x="40" width="140" height="30" as="geometry">
                        <mxRectangle width="140" height="30" as="alternateBounds"/>
                    </mxGeometry>
                </mxCell>
                <mxCell id="9" value="" style="shape=partialRectangle;collapsible=0;dropTarget=0;pointerEvents=0;fillColor=none;top=0;left=0;bottom=0;right=0;points=[[0,0.5],[1,0.5]];portConstraint=eastwest;" vertex="1" parent="2">
                    <mxGeometry y="90" width="180" height="30" as="geometry"/>
                </mxCell>
                <mxCell id="10" value="" style="shape=partialRectangle;connectable=0;fillColor=none;top=0;left=0;bottom=0;right=0;editable=1;overflow=hidden;" vertex="1" parent="9">
                    <mxGeometry width="40" height="30" as="geometry">
                        <mxRectangle width="40" height="30" as="alternateBounds"/>
                    </mxGeometry>
                </mxCell>
                <mxCell id="11" value="sleep_at" style="shape=partialRectangle;connectable=0;fillColor=none;top=0;left=0;bottom=0;right=0;align=left;spacingLeft=6;overflow=hidden;" vertex="1" parent="9">
                    <mxGeometry x="40" width="140" height="30" as="geometry">
                        <mxRectangle width="140" height="30" as="alternateBounds"/>
                    </mxGeometry>
                </mxCell>
                <mxCell id="12" value="" style="shape=partialRectangle;collapsible=0;dropTarget=0;pointerEvents=0;fillColor=none;top=0;left=0;bottom=0;right=0;points=[[0,0.5],[1,0.5]];portConstraint=eastwest;" vertex="1" parent="2">
                    <mxGeometry y="120" width="180" height="30" as="geometry"/>
                </mxCell>
                <mxCell id="13" value="" style="shape=partialRectangle;connectable=0;fillColor=none;top=0;left=0;bottom=0;right=0;editable=1;overflow=hidden;" vertex="1" parent="12">
                    <mxGeometry width="40" height="30" as="geometry">
                        <mxRectangle width="40" height="30" as="alternateBounds"/>
                    </mxGeometry>
                </mxCell>
                <mxCell id="14" value="wake_at" style="shape=partialRectangle;connectable=0;fillColor=none;top=0;left=0;bottom=0;right=0;align=left;spacingLeft=6;overflow=hidden;" vertex="1" parent="12">
                    <mxGeometry x="40" width="140" height="30" as="geometry">
                        <mxRectangle width="140" height="30" as="alternateBounds"/>
                    </mxGeometry>
                </mxCell>
                <mxCell id="35" value="" style="shape=partialRectangle;collapsible=0;dropTarget=0;pointerEvents=0;fillColor=none;top=0;left=0;bottom=0;right=0;points=[[0,0.5],[1,0.5]];portConstraint=eastwest;" vertex="1" parent="2">
                    <mxGeometry y="150" width="180" height="30" as="geometry"/>
                </mxCell>
                <mxCell id="36" value="" style="shape=partialRectangle;connectable=0;fillColor=none;top=0;left=0;bottom=0;right=0;editable=1;overflow=hidden;" vertex="1" parent="35">
                    <mxGeometry width="40" height="30" as="geometry">
                        <mxRectangle width="40" height="30" as="alternateBounds"/>
                    </mxGeometry>
                </mxCell>
                <mxCell id="37" value="satisfaction" style="shape=partialRectangle;connectable=0;fillColor=none;top=0;left=0;bottom=0;right=0;align=left;spacingLeft=6;overflow=hidden;" vertex="1" parent="35">
                    <mxGeometry x="40" width="140" height="30" as="geometry">
                        <mxRectangle width="140" height="30" as="alternateBounds"/>
                    </mxGeometry>
                </mxCell>
                <mxCell id="15" value="users" style="shape=table;startSize=30;container=1;collapsible=1;childLayout=tableLayout;fixedRows=1;rowLines=0;fontStyle=1;align=center;resizeLast=1;" vertex="1" parent="1">
                    <mxGeometry x="40" y="40" width="180" height="160" as="geometry"/>
                </mxCell>
                <mxCell id="16" value="" style="shape=partialRectangle;collapsible=0;dropTarget=0;pointerEvents=0;fillColor=none;top=0;left=0;bottom=1;right=0;points=[[0,0.5],[1,0.5]];portConstraint=eastwest;" vertex="1" parent="15">
                    <mxGeometry y="30" width="180" height="30" as="geometry"/>
                </mxCell>
                <mxCell id="17" value="PK" style="shape=partialRectangle;connectable=0;fillColor=none;top=0;left=0;bottom=0;right=0;fontStyle=1;overflow=hidden;" vertex="1" parent="16">
                    <mxGeometry width="39.999999999999886" height="30" as="geometry">
                        <mxRectangle width="39.999999999999886" height="30" as="alternateBounds"/>
                    </mxGeometry>
                </mxCell>
                <mxCell id="18" value="id" style="shape=partialRectangle;connectable=0;fillColor=none;top=0;left=0;bottom=0;right=0;align=left;spacingLeft=6;fontStyle=5;overflow=hidden;" vertex="1" parent="16">
                    <mxGeometry x="39.999999999999886" width="140.0000000000001" height="30" as="geometry">
                        <mxRectangle width="140.0000000000001" height="30" as="alternateBounds"/>
                    </mxGeometry>
                </mxCell>
                <mxCell id="19" value="" style="shape=partialRectangle;collapsible=0;dropTarget=0;pointerEvents=0;fillColor=none;top=0;left=0;bottom=0;right=0;points=[[0,0.5],[1,0.5]];portConstraint=eastwest;" vertex="1" parent="15">
                    <mxGeometry y="60" width="180" height="30" as="geometry"/>
                </mxCell>
                <mxCell id="20" value="" style="shape=partialRectangle;connectable=0;fillColor=none;top=0;left=0;bottom=0;right=0;editable=1;overflow=hidden;" vertex="1" parent="19">
                    <mxGeometry width="39.999999999999886" height="30" as="geometry">
                        <mxRectangle width="39.999999999999886" height="30" as="alternateBounds"/>
                    </mxGeometry>
                </mxCell>
                <mxCell id="21" value="name" style="shape=partialRectangle;connectable=0;fillColor=none;top=0;left=0;bottom=0;right=0;align=left;spacingLeft=6;overflow=hidden;" vertex="1" parent="19">
                    <mxGeometry x="39.999999999999886" width="140.0000000000001" height="30" as="geometry">
                        <mxRectangle width="140.0000000000001" height="30" as="alternateBounds"/>
                    </mxGeometry>
                </mxCell>
                <mxCell id="22" value="" style="shape=partialRectangle;collapsible=0;dropTarget=0;pointerEvents=0;fillColor=none;top=0;left=0;bottom=0;right=0;points=[[0,0.5],[1,0.5]];portConstraint=eastwest;" vertex="1" parent="15">
                    <mxGeometry y="90" width="180" height="30" as="geometry"/>
                </mxCell>
                <mxCell id="23" value="" style="shape=partialRectangle;connectable=0;fillColor=none;top=0;left=0;bottom=0;right=0;editable=1;overflow=hidden;" vertex="1" parent="22">
                    <mxGeometry width="39.999999999999886" height="30" as="geometry">
                        <mxRectangle width="39.999999999999886" height="30" as="alternateBounds"/>
                    </mxGeometry>
                </mxCell>
                <mxCell id="24" value="email" style="shape=partialRectangle;connectable=0;fillColor=none;top=0;left=0;bottom=0;right=0;align=left;spacingLeft=6;overflow=hidden;" vertex="1" parent="22">
                    <mxGeometry x="39.999999999999886" width="140.0000000000001" height="30" as="geometry">
                        <mxRectangle width="140.0000000000001" height="30" as="alternateBounds"/>
                    </mxGeometry>
                </mxCell>
                <mxCell id="28" value="" style="shape=partialRectangle;collapsible=0;dropTarget=0;pointerEvents=0;fillColor=none;top=0;left=0;bottom=0;right=0;points=[[0,0.5],[1,0.5]];portConstraint=eastwest;" vertex="1" parent="15">
                    <mxGeometry y="120" width="180" height="30" as="geometry"/>
                </mxCell>
                <mxCell id="29" value="" style="shape=partialRectangle;connectable=0;fillColor=none;top=0;left=0;bottom=0;right=0;editable=1;overflow=hidden;" vertex="1" parent="28">
                    <mxGeometry width="39.999999999999886" height="30" as="geometry">
                        <mxRectangle width="39.999999999999886" height="30" as="alternateBounds"/>
                    </mxGeometry>
                </mxCell>
                <mxCell id="30" value="admin" style="shape=partialRectangle;connectable=0;fillColor=none;top=0;left=0;bottom=0;right=0;align=left;spacingLeft=6;overflow=hidden;" vertex="1" parent="28">
                    <mxGeometry x="39.999999999999886" width="140.0000000000001" height="30" as="geometry">
                        <mxRectangle width="140.0000000000001" height="30" as="alternateBounds"/>
                    </mxGeometry>
                </mxCell>
                <mxCell id="51" value="comment_relationship" style="shape=table;startSize=30;container=1;collapsible=1;childLayout=tableLayout;fixedRows=1;rowLines=0;fontStyle=1;align=center;resizeLast=1;" vertex="1" parent="1">
                    <mxGeometry x="600" y="40" width="180" height="130" as="geometry"/>
                </mxCell>
                <mxCell id="52" value="" style="shape=partialRectangle;collapsible=0;dropTarget=0;pointerEvents=0;fillColor=none;top=0;left=0;bottom=1;right=0;points=[[0,0.5],[1,0.5]];portConstraint=eastwest;" vertex="1" parent="51">
                    <mxGeometry y="30" width="180" height="30" as="geometry"/>
                </mxCell>
                <mxCell id="53" value="PK" style="shape=partialRectangle;connectable=0;fillColor=none;top=0;left=0;bottom=0;right=0;fontStyle=1;overflow=hidden;" vertex="1" parent="52">
                    <mxGeometry width="40" height="30" as="geometry">
                        <mxRectangle width="40" height="30" as="alternateBounds"/>
                    </mxGeometry>
                </mxCell>
                <mxCell id="54" value="id" style="shape=partialRectangle;connectable=0;fillColor=none;top=0;left=0;bottom=0;right=0;align=left;spacingLeft=6;fontStyle=5;overflow=hidden;" vertex="1" parent="52">
                    <mxGeometry x="40" width="140" height="30" as="geometry">
                        <mxRectangle width="140" height="30" as="alternateBounds"/>
                    </mxGeometry>
                </mxCell>
                <mxCell id="55" value="" style="shape=partialRectangle;collapsible=0;dropTarget=0;pointerEvents=0;fillColor=none;top=0;left=0;bottom=0;right=0;points=[[0,0.5],[1,0.5]];portConstraint=eastwest;" vertex="1" parent="51">
                    <mxGeometry y="60" width="180" height="30" as="geometry"/>
                </mxCell>
                <mxCell id="56" value="FK" style="shape=partialRectangle;connectable=0;fillColor=none;top=0;left=0;bottom=0;right=0;editable=1;overflow=hidden;" vertex="1" parent="55">
                    <mxGeometry width="40" height="30" as="geometry">
                        <mxRectangle width="40" height="30" as="alternateBounds"/>
                    </mxGeometry>
                </mxCell>
                <mxCell id="57" value="sleep_log_id" style="shape=partialRectangle;connectable=0;fillColor=none;top=0;left=0;bottom=0;right=0;align=left;spacingLeft=6;overflow=hidden;" vertex="1" parent="55">
                    <mxGeometry x="40" width="140" height="30" as="geometry">
                        <mxRectangle width="140" height="30" as="alternateBounds"/>
                    </mxGeometry>
                </mxCell>
                <mxCell id="58" value="" style="shape=partialRectangle;collapsible=0;dropTarget=0;pointerEvents=0;fillColor=none;top=0;left=0;bottom=0;right=0;points=[[0,0.5],[1,0.5]];portConstraint=eastwest;" vertex="1" parent="51">
                    <mxGeometry y="90" width="180" height="30" as="geometry"/>
                </mxCell>
                <mxCell id="59" value="FK" style="shape=partialRectangle;connectable=0;fillColor=none;top=0;left=0;bottom=0;right=0;editable=1;overflow=hidden;" vertex="1" parent="58">
                    <mxGeometry width="40" height="30" as="geometry">
                        <mxRectangle width="40" height="30" as="alternateBounds"/>
                    </mxGeometry>
                </mxCell>
                <mxCell id="60" value="comment_id" style="shape=partialRectangle;connectable=0;fillColor=none;top=0;left=0;bottom=0;right=0;align=left;spacingLeft=6;overflow=hidden;" vertex="1" parent="58">
                    <mxGeometry x="40" width="140" height="30" as="geometry">
                        <mxRectangle width="140" height="30" as="alternateBounds"/>
                    </mxGeometry>
                </mxCell>
                <mxCell id="64" value="comment" style="shape=table;startSize=30;container=1;collapsible=1;childLayout=tableLayout;fixedRows=1;rowLines=0;fontStyle=1;align=center;resizeLast=1;" vertex="1" parent="1">
                    <mxGeometry x="600" y="260" width="180" height="100" as="geometry"/>
                </mxCell>
                <mxCell id="65" value="" style="shape=partialRectangle;collapsible=0;dropTarget=0;pointerEvents=0;fillColor=none;top=0;left=0;bottom=1;right=0;points=[[0,0.5],[1,0.5]];portConstraint=eastwest;" vertex="1" parent="64">
                    <mxGeometry y="30" width="180" height="30" as="geometry"/>
                </mxCell>
                <mxCell id="66" value="PK" style="shape=partialRectangle;connectable=0;fillColor=none;top=0;left=0;bottom=0;right=0;fontStyle=1;overflow=hidden;" vertex="1" parent="65">
                    <mxGeometry width="40" height="30" as="geometry">
                        <mxRectangle width="40" height="30" as="alternateBounds"/>
                    </mxGeometry>
                </mxCell>
                <mxCell id="67" value="id" style="shape=partialRectangle;connectable=0;fillColor=none;top=0;left=0;bottom=0;right=0;align=left;spacingLeft=6;fontStyle=5;overflow=hidden;" vertex="1" parent="65">
                    <mxGeometry x="40" width="140" height="30" as="geometry">
                        <mxRectangle width="140" height="30" as="alternateBounds"/>
                    </mxGeometry>
                </mxCell>
                <mxCell id="68" value="" style="shape=partialRectangle;collapsible=0;dropTarget=0;pointerEvents=0;fillColor=none;top=0;left=0;bottom=0;right=0;points=[[0,0.5],[1,0.5]];portConstraint=eastwest;" vertex="1" parent="64">
                    <mxGeometry y="60" width="180" height="30" as="geometry"/>
                </mxCell>
                <mxCell id="69" value="" style="shape=partialRectangle;connectable=0;fillColor=none;top=0;left=0;bottom=0;right=0;editable=1;overflow=hidden;" vertex="1" parent="68">
                    <mxGeometry width="40" height="30" as="geometry">
                        <mxRectangle width="40" height="30" as="alternateBounds"/>
                    </mxGeometry>
                </mxCell>
                <mxCell id="70" value="body" style="shape=partialRectangle;connectable=0;fillColor=none;top=0;left=0;bottom=0;right=0;align=left;spacingLeft=6;overflow=hidden;" vertex="1" parent="68">
                    <mxGeometry x="40" width="140" height="30" as="geometry">
                        <mxRectangle width="140" height="30" as="alternateBounds"/>
                    </mxGeometry>
                </mxCell>
                <mxCell id="74" value="alarm_presets" style="shape=table;startSize=30;container=1;collapsible=1;childLayout=tableLayout;fixedRows=1;rowLines=0;fontStyle=1;align=center;resizeLast=1;" vertex="1" parent="1">
                    <mxGeometry x="40" y="280" width="180" height="190" as="geometry"/>
                </mxCell>
                <mxCell id="75" value="" style="shape=partialRectangle;collapsible=0;dropTarget=0;pointerEvents=0;fillColor=none;top=0;left=0;bottom=1;right=0;points=[[0,0.5],[1,0.5]];portConstraint=eastwest;" vertex="1" parent="74">
                    <mxGeometry y="30" width="180" height="30" as="geometry"/>
                </mxCell>
                <mxCell id="76" value="PK" style="shape=partialRectangle;connectable=0;fillColor=none;top=0;left=0;bottom=0;right=0;fontStyle=1;overflow=hidden;" vertex="1" parent="75">
                    <mxGeometry width="40" height="30" as="geometry">
                        <mxRectangle width="40" height="30" as="alternateBounds"/>
                    </mxGeometry>
                </mxCell>
                <mxCell id="77" value="id" style="shape=partialRectangle;connectable=0;fillColor=none;top=0;left=0;bottom=0;right=0;align=left;spacingLeft=6;fontStyle=5;overflow=hidden;" vertex="1" parent="75">
                    <mxGeometry x="40" width="140" height="30" as="geometry">
                        <mxRectangle width="140" height="30" as="alternateBounds"/>
                    </mxGeometry>
                </mxCell>
                <mxCell id="78" value="" style="shape=partialRectangle;collapsible=0;dropTarget=0;pointerEvents=0;fillColor=none;top=0;left=0;bottom=0;right=0;points=[[0,0.5],[1,0.5]];portConstraint=eastwest;" vertex="1" parent="74">
                    <mxGeometry y="60" width="180" height="30" as="geometry"/>
                </mxCell>
                <mxCell id="79" value="FK" style="shape=partialRectangle;connectable=0;fillColor=none;top=0;left=0;bottom=0;right=0;editable=1;overflow=hidden;" vertex="1" parent="78">
                    <mxGeometry width="40" height="30" as="geometry">
                        <mxRectangle width="40" height="30" as="alternateBounds"/>
                    </mxGeometry>
                </mxCell>
                <mxCell id="80" value="user_id" style="shape=partialRectangle;connectable=0;fillColor=none;top=0;left=0;bottom=0;right=0;align=left;spacingLeft=6;overflow=hidden;" vertex="1" parent="78">
                    <mxGeometry x="40" width="140" height="30" as="geometry">
                        <mxRectangle width="140" height="30" as="alternateBounds"/>
                    </mxGeometry>
                </mxCell>
                <mxCell id="81" value="" style="shape=partialRectangle;collapsible=0;dropTarget=0;pointerEvents=0;fillColor=none;top=0;left=0;bottom=0;right=0;points=[[0,0.5],[1,0.5]];portConstraint=eastwest;" vertex="1" parent="74">
                    <mxGeometry y="90" width="180" height="30" as="geometry"/>
                </mxCell>
                <mxCell id="82" value="" style="shape=partialRectangle;connectable=0;fillColor=none;top=0;left=0;bottom=0;right=0;editable=1;overflow=hidden;" vertex="1" parent="81">
                    <mxGeometry width="40" height="30" as="geometry">
                        <mxRectangle width="40" height="30" as="alternateBounds"/>
                    </mxGeometry>
                </mxCell>
                <mxCell id="83" value="preset_name" style="shape=partialRectangle;connectable=0;fillColor=none;top=0;left=0;bottom=0;right=0;align=left;spacingLeft=6;overflow=hidden;" vertex="1" parent="81">
                    <mxGeometry x="40" width="140" height="30" as="geometry">
                        <mxRectangle width="140" height="30" as="alternateBounds"/>
                    </mxGeometry>
                </mxCell>
                <mxCell id="84" value="" style="shape=partialRectangle;collapsible=0;dropTarget=0;pointerEvents=0;fillColor=none;top=0;left=0;bottom=0;right=0;points=[[0,0.5],[1,0.5]];portConstraint=eastwest;" vertex="1" parent="74">
                    <mxGeometry y="120" width="180" height="30" as="geometry"/>
                </mxCell>
                <mxCell id="85" value="" style="shape=partialRectangle;connectable=0;fillColor=none;top=0;left=0;bottom=0;right=0;editable=1;overflow=hidden;" vertex="1" parent="84">
                    <mxGeometry width="40" height="30" as="geometry">
                        <mxRectangle width="40" height="30" as="alternateBounds"/>
                    </mxGeometry>
                </mxCell>
                <mxCell id="86" value="wake_at" style="shape=partialRectangle;connectable=0;fillColor=none;top=0;left=0;bottom=0;right=0;align=left;spacingLeft=6;overflow=hidden;" vertex="1" parent="84">
                    <mxGeometry x="40" width="140" height="30" as="geometry">
                        <mxRectangle width="140" height="30" as="alternateBounds"/>
                    </mxGeometry>
                </mxCell>
                <mxCell id="87" value="" style="shape=partialRectangle;collapsible=0;dropTarget=0;pointerEvents=0;fillColor=none;top=0;left=0;bottom=0;right=0;points=[[0,0.5],[1,0.5]];portConstraint=eastwest;" vertex="1" parent="74">
                    <mxGeometry y="150" width="180" height="30" as="geometry"/>
                </mxCell>
                <mxCell id="88" value="" style="shape=partialRectangle;connectable=0;fillColor=none;top=0;left=0;bottom=0;right=0;editable=1;overflow=hidden;" vertex="1" parent="87">
                    <mxGeometry width="40" height="30" as="geometry">
                        <mxRectangle width="40" height="30" as="alternateBounds"/>
                    </mxGeometry>
                </mxCell>
                <mxCell id="89" value="task" style="shape=partialRectangle;connectable=0;fillColor=none;top=0;left=0;bottom=0;right=0;align=left;spacingLeft=6;overflow=hidden;" vertex="1" parent="87">
                    <mxGeometry x="40" width="140" height="30" as="geometry">
                        <mxRectangle width="140" height="30" as="alternateBounds"/>
                    </mxGeometry>
                </mxCell>
                <mxCell id="92" value="" style="edgeStyle=entityRelationEdgeStyle;fontSize=12;html=1;endArrow=ERoneToMany;exitX=1;exitY=0.5;exitDx=0;exitDy=0;entryX=0;entryY=0.5;entryDx=0;entryDy=0;" edge="1" parent="1" source="16" target="6">
                    <mxGeometry width="100" height="100" relative="1" as="geometry">
                        <mxPoint x="230" y="80" as="sourcePoint"/>
                        <mxPoint x="320" y="-10" as="targetPoint"/>
                    </mxGeometry>
                </mxCell>
                <mxCell id="93" value="" style="edgeStyle=entityRelationEdgeStyle;fontSize=12;html=1;endArrow=ERoneToMany;exitX=1;exitY=0.5;exitDx=0;exitDy=0;entryX=1;entryY=0.5;entryDx=0;entryDy=0;" edge="1" parent="1" source="16" target="78">
                    <mxGeometry width="100" height="100" relative="1" as="geometry">
                        <mxPoint x="230" y="95" as="sourcePoint"/>
                        <mxPoint x="280" y="200" as="targetPoint"/>
                    </mxGeometry>
                </mxCell>
                <mxCell id="96" value="" style="edgeStyle=entityRelationEdgeStyle;fontSize=12;html=1;endArrow=ERzeroToOne;endFill=1;entryX=0;entryY=0.5;entryDx=0;entryDy=0;exitX=1;exitY=0.5;exitDx=0;exitDy=0;" edge="1" parent="1" source="3" target="55">
                    <mxGeometry width="100" height="100" relative="1" as="geometry">
                        <mxPoint x="500" y="80" as="sourcePoint"/>
                        <mxPoint x="480" y="60" as="targetPoint"/>
                    </mxGeometry>
                </mxCell>
                <mxCell id="97" value="" style="edgeStyle=entityRelationEdgeStyle;fontSize=12;html=1;endArrow=ERmandOne;startArrow=ERmandOne;entryX=1;entryY=0.5;entryDx=0;entryDy=0;" edge="1" parent="1" source="65" target="58">
                    <mxGeometry width="100" height="100" relative="1" as="geometry">
                        <mxPoint x="550" y="230" as="sourcePoint"/>
                        <mxPoint x="480" y="130" as="targetPoint"/>
                    </mxGeometry>
                </mxCell>
            </root>
        </mxGraphModel>
    </diagram>
</mxfile>